<svg width="24" height="24" viewBox="0 0 24 24" fill="none" xmlns="http://www.w3.org/2000/svg">
<path fill-rule="evenodd" clip-rule="evenodd" d="M6 3H18C19.6569 3 21 4.34315 21 6V18C21 19.6569 19.6569 21 18 21H6C4.34315 21 3 19.6569 3 18V6C3 4.34315 4.34315 3 6 3ZM2 6C2 3.79086 3.79086 2 6 2H18C20.2091 2 22 3.79086 22 6V18C22 20.2091 20.2091 22 18 22H6C3.79086 22 2 20.2091 2 18V6ZM16 12.0001C16 14.2093 14.2091 16.0001 12 16.0001C9.79086 16.0001 8 14.2093 8 12.0001C8 9.791 9.79086 8.00013 12 8.00013C14.2091 8.00013 16 9.791 16 12.0001ZM17.2578 5.7221C16.7078 5.72364 16.2622 6.16922 16.2607 6.71923L16.2578 6.7221L16.2607 6.72497C16.2622 7.27498 16.7078 7.72056 17.2578 7.7221H17.2607C17.812 7.7221 18.2591 7.27593 18.2607 6.72496L18.2607 6.7221L18.2607 6.71924C18.2591 6.16827 17.812 5.7221 17.2607 5.7221H17.2578ZM12 17.0001C14.7614 17.0001 17 14.7616 17 12.0001C17 9.23871 14.7614 7.00013 12 7.00013C9.23858 7.00013 7 9.23871 7 12.0001C7 14.7616 9.23858 17.0001 12 17.0001Z" fill="black"/>
</svg>
