<svg width="24" height="24" viewBox="0 0 24 24" fill="none" xmlns="http://www.w3.org/2000/svg">
<path fill-rule="evenodd" clip-rule="evenodd" d="M11.5165 20.9751V13.8078H10.4336H9.68359V12.3078H10.4336H11.5165V9.48633C11.5165 7.96754 12.7477 6.73633 14.2665 6.73633H15.0895H15.8395V8.23633H15.0895H14.2665C13.5761 8.23633 13.0165 8.79597 13.0165 9.48633V12.3078H14.3962H15.1462V13.8078H14.3962H13.0165V20.9627C17.6003 20.5461 21.1914 16.6924 21.1914 12C21.1914 7.02944 17.162 3 12.1914 3C7.22084 3 3.19141 7.02944 3.19141 12C3.19141 16.7435 6.86116 20.6299 11.5165 20.9751ZM22.1914 12C22.1914 17.5228 17.7143 22 12.1914 22C6.66856 22 2.19141 17.5228 2.19141 12C2.19141 6.47715 6.66856 2 12.1914 2C17.7143 2 22.1914 6.47715 22.1914 12Z" fill="black"/>
</svg>
