<svg width="170" height="170" viewBox="0 0 170 170" fill="none" xmlns="http://www.w3.org/2000/svg">
<circle cx="85" cy="85" r="83" stroke="#3B0912" stroke-width="4"/>
<path fill-rule="evenodd" clip-rule="evenodd" d="M97.8021 105.373C101.022 106.218 104.343 106.641 107.764 106.641C111.789 106.641 115.21 106.037 118.028 104.829C120.845 103.582 122.958 101.931 124.367 99.8785C125.776 97.8258 126.48 95.5315 126.48 92.9958C126.48 90.0575 125.695 87.7431 124.126 86.0526C122.596 84.3219 120.765 83.0741 118.631 82.3094C116.538 81.5044 113.882 80.7598 110.662 80.0755C107.804 79.4718 105.731 78.8881 104.443 78.3246C103.155 77.7611 102.511 76.9159 102.511 75.7889C102.511 74.6619 103.055 73.7563 104.141 73.072C105.228 72.3475 106.959 71.9853 109.334 71.9853C113.117 71.9853 117.021 73.072 121.046 75.2455L124.729 66.3704C122.677 65.1629 120.302 64.2573 117.605 63.6535C114.908 63.0095 112.171 62.6875 109.394 62.6875C105.329 62.6875 101.887 63.2913 99.07 64.4988C96.2927 65.7063 94.1997 67.3565 92.791 69.4495C91.3822 71.5023 90.6778 73.8166 90.6778 76.3926C90.6778 79.3309 91.4426 81.6654 92.9721 83.3961C94.5016 85.1269 96.333 86.3948 98.4662 87.1998C100.599 87.9645 103.256 88.689 106.436 89.3733C109.334 90.0173 111.427 90.6411 112.715 91.2449C114.043 91.8084 114.707 92.6939 114.707 93.9014C114.707 96.1956 112.413 97.3428 107.824 97.3428C105.409 97.3428 102.954 96.9604 100.459 96.1956C97.9631 95.4309 95.7695 94.4246 93.8777 93.1769L89.9533 101.992C91.9658 103.4 94.5821 104.527 97.8021 105.373ZM72.3253 105.795L90.4377 63.5327H78.6043L66.8915 91.0638L55.4202 63.5327H42.5L60.5521 105.795H72.3253Z" fill="#3B0912"/>
</svg>
