<svg width="24" height="24" viewBox="0 0 24 24" fill="none" xmlns="http://www.w3.org/2000/svg">
<path fill-rule="evenodd" clip-rule="evenodd" d="M21 12C21 16.9706 16.9706 21 12 21C7.02944 21 3 16.9706 3 12C3 7.02944 7.02944 3 12 3C16.9706 3 21 7.02944 21 12ZM22 12C22 17.5228 17.5228 22 12 22C6.47715 22 2 17.5228 2 12C2 6.47715 6.47715 2 12 2C17.5228 2 22 6.47715 22 12ZM12.1526 12.4918L14.4957 10.4914L11.6403 11.6481L9.60259 12.4735L9.1917 12.3454L8.34721 12.0821L15.8362 9.18897L14.4358 15.798L12.4229 14.3083L11.7424 13.8046L11.1334 14.3927L10.812 14.7029L10.7454 13.6932L12.1526 12.4918ZM8.89399 13.3001L9.708 15.9433L9.77599 16.1641C9.85035 16.3681 9.94246 16.4621 10.05 16.4951C10.0623 16.4989 10.0747 16.5018 10.0873 16.5041C10.1324 16.5121 10.18 16.511 10.23 16.5041C10.4121 16.4799 10.5107 16.3844 10.6275 16.2712L10.639 16.2601L10.6668 16.2332L11.828 15.1121L14.379 17.0001C14.844 17.2571 15.179 17.1241 15.295 16.5671L16.952 8.74707C17.135 8.01807 16.815 7.72707 16.25 7.95707L6.81171 11.6032L6.7641 11.6216L6.66449 11.6601L6.65834 11.6625L6.51699 11.7171C5.85299 11.9841 5.85599 12.3561 6.39599 12.5211L6.82982 12.6564L6.84902 12.6623L8.89399 13.3001ZM14.3028 16.4127C14.3028 16.4126 14.3036 16.4098 14.3057 16.4049C14.304 16.4104 14.3029 16.4129 14.3028 16.4127ZM16.6534 8.87396L16.6505 8.87472C16.6525 8.87414 16.6534 8.87392 16.6534 8.87396Z" fill="black"/>
</svg>
