<svg width="24" height="24" viewBox="0 0 24 24" fill="none" xmlns="http://www.w3.org/2000/svg">
<path fill-rule="evenodd" clip-rule="evenodd" d="M4 3.00018H20C20.5523 3.00018 21 3.4479 21 4.00018V20.0002C21 20.5525 20.5523 21.0002 20 21.0002H4C3.44772 21.0002 3 20.5525 3 20.0002V4.00018C3 3.4479 3.44772 3.00018 4 3.00018ZM2 4.00018C2 2.89561 2.89543 2.00018 4 2.00018H20C21.1046 2.00018 22 2.89561 22 4.00018V20.0002C22 21.1048 21.1046 22.0002 20 22.0002H4C2.89543 22.0002 2 21.1048 2 20.0002V4.00018ZM16.6566 12.4131C16.6566 14.8035 14.7187 16.7413 12.3283 16.7413C9.93784 16.7413 8 14.8035 8 12.4131C8 10.0226 9.93784 8.08479 12.3283 8.08479C14.7187 8.08479 16.6566 10.0226 16.6566 12.4131ZM17.9343 5.72284H17.9313C17.3452 5.72449 16.8703 6.19932 16.8687 6.78544L16.8656 6.78849L16.8687 6.79155C16.8703 7.37768 17.3452 7.85251 17.9313 7.85415H17.9343C18.5219 7.85415 18.9984 7.37869 19 6.79154L19 6.78849L19 6.78545C18.9984 6.1983 18.5219 5.72284 17.9343 5.72284ZM12.3283 17.7413C15.271 17.7413 17.6566 15.3558 17.6566 12.4131C17.6566 9.47034 15.271 7.08479 12.3283 7.08479C9.38555 7.08479 7 9.47034 7 12.4131C7 15.3558 9.38555 17.7413 12.3283 17.7413Z" fill="white"/>
</svg>
