<svg width="24" height="24" viewBox="0 0 24 24" fill="none" xmlns="http://www.w3.org/2000/svg">
<path d="M21.2462 6.62221L21.2461 6.62182C21.0376 5.80615 20.424 5.1735 19.6578 4.95752C19.2804 4.85248 18.6337 4.76594 17.8412 4.69904C17.0595 4.63307 16.1713 4.5888 15.3315 4.55919C14.4925 4.52961 13.706 4.5148 13.129 4.5074C12.8407 4.50369 12.6049 4.50185 12.4414 4.50092C12.3596 4.50046 12.2959 4.50023 12.2528 4.50011L12.2038 4.50001L12.1915 4.5L12.1884 4.5L12.1877 4.5H12.1875L12.1875 4L12.1875 4.5H12.1873L12.1866 4.5L12.1835 4.5L12.1712 4.50001L12.1222 4.50011C12.0791 4.50023 12.0155 4.50046 11.9338 4.50092C11.7703 4.50185 11.5347 4.50369 11.2464 4.5074C10.6696 4.5148 9.88343 4.52961 9.04462 4.55919C8.20501 4.5888 7.31688 4.63307 6.53508 4.69904C5.74218 4.76595 5.09489 4.85253 4.71661 4.95768L21.2462 6.62221ZM21.2462 6.62221C21.4606 7.45851 21.5738 8.7875 21.631 9.942C21.6592 10.512 21.6734 11.0274 21.6804 11.4004C21.684 11.5867 21.6857 11.7373 21.6866 11.8409C21.6871 11.8927 21.6873 11.9328 21.6874 11.9598L21.6875 11.9903L21.6875 11.9978L21.6875 11.9996V12V12V12V12V12.0004L21.6875 12.0022L21.6875 12.0097L21.6874 12.0402C21.6873 12.0672 21.6871 12.1073 21.6866 12.1591C21.6857 12.2627 21.684 12.4133 21.6804 12.5996C21.6734 12.9726 21.6592 13.488 21.631 14.058C21.5738 15.2125 21.4606 16.5415 21.2462 17.3778C21.0344 18.1983 20.4187 18.8306 19.6584 19.0423L19.6583 19.0423M21.2462 6.62221L19.6583 19.0423M19.6583 19.0423C19.281 19.1474 18.6341 19.234 17.8412 19.301C17.0595 19.3669 16.1713 19.4112 15.3315 19.4408C14.4925 19.4704 13.706 19.4852 13.129 19.4926C12.8407 19.4963 12.6049 19.4982 12.4414 19.4991C12.3596 19.4995 12.2959 19.4998 12.2528 19.4999L12.2038 19.5L12.1915 19.5L12.1884 19.5H12.1877H12.1875L12.1875 20L12.1875 19.5H12.1873H12.1866L12.1835 19.5L12.1712 19.5L12.1222 19.4999C12.0791 19.4998 12.0155 19.4995 11.9338 19.4991C11.7703 19.4982 11.5347 19.4963 11.2464 19.4926C10.6696 19.4852 9.88343 19.4704 9.04462 19.4408C8.20501 19.4112 7.31688 19.3669 6.53508 19.301C5.74262 19.2341 5.0956 19.1476 4.71724 19.0425C3.95105 18.8265 3.33742 18.1939 3.12893 17.3782L3.12883 17.3778M19.6583 19.0423L3.12883 17.3778M3.12883 17.3778C2.91436 16.5415 2.80122 15.2125 2.74401 14.058M3.12883 17.3778L2.74401 14.058M2.74401 14.058C2.71576 13.488 2.70162 12.9726 2.69455 12.5996M2.74401 14.058L2.69455 12.5996M2.69455 12.5996C2.69102 12.4133 2.68925 12.2627 2.68837 12.1591M2.69455 12.5996L2.68837 12.1591M2.68837 12.1591C2.68793 12.1073 2.68772 12.0672 2.68761 12.0402M2.68837 12.1591L2.68761 12.0402M2.68761 12.0402L2.68751 12.0097M2.68761 12.0402L2.68751 12.0097M2.68751 12.0097L2.6875 12.0022M2.68751 12.0097L2.6875 12.0022M2.6875 12.0022L2.6875 12.0004M2.6875 12.0022L2.6875 12.0004M2.6875 12.0004L2.6875 12M2.6875 12.0004L2.6875 12M2.6875 12V12M2.6875 12V12M2.6875 12V12M2.6875 12V12M2.6875 12V12L2.6875 11.9996L2.6875 11.9978L2.68751 11.9903L2.68761 11.9598C2.68772 11.9328 2.68793 11.8927 2.68837 11.8409C2.68925 11.7373 2.69102 11.5867 2.69455 11.4004C2.70162 11.0274 2.71576 10.512 2.74401 9.942C2.80122 8.78765 2.91432 7.45886 3.12874 6.62254C3.34046 5.80195 3.95615 5.16948 4.71644 4.95773L2.6875 12Z" stroke="black"/>
<path d="M15.1952 12L10.6875 14.6295V9.37052L15.1952 12Z" fill="black" stroke="black"/>
</svg>
