<svg width="157" height="51" viewBox="0 0 157 51" fill="none" xmlns="http://www.w3.org/2000/svg">
<line y1="-0.563619" x2="25.7282" y2="-0.563619" transform="matrix(-0.00127452 -0.999999 0.999999 -0.0012913 91.5131 38.3658)" stroke="#F5B22B" stroke-width="1.12724"/>
<ellipse rx="2.86926" ry="2.8512" transform="matrix(-0.0132542 -0.999912 0.99991 -0.0134554 91.4685 41.2007)" fill="white"/>
<ellipse rx="3.82568" ry="3.8016" transform="matrix(-0.0132542 -0.999912 0.99991 -0.0134554 91.4189 11.3507)" fill="white"/>
<line y1="-0.563619" x2="24.2935" y2="-0.563619" transform="matrix(-0.00127442 -0.999999 -0.999999 0.00129141 128.293 38.127)" stroke="white" stroke-width="1.12724"/>
<ellipse rx="3.82569" ry="3.8016" transform="matrix(-0.00126675 -0.999999 -0.999999 0.00129922 128.284 41.2833)" fill="white"/>
<ellipse rx="3.82569" ry="3.8016" transform="matrix(-0.00125877 -0.999999 -0.999999 0.00130746 128.244 10.1811)" fill="white"/>
<line y1="-0.563619" x2="19.7026" y2="-0.563619" transform="matrix(-0.00127553 -0.999999 0.999999 -0.00129028 137.793 35.7237)" stroke="#F5B22B" stroke-width="1.12724"/>
<ellipse rx="3.82569" ry="3.8016" transform="matrix(-0.00126674 -0.999999 -0.999999 0.00129923 137.783 38.3061)" fill="#F5B22B"/>
<ellipse rx="3.82569" ry="3.8016" transform="matrix(-0.00125877 -0.999999 -0.999999 0.00130746 137.752 13.1282)" fill="#F5B22B"/>
<line y1="-0.563619" x2="20.0852" y2="-0.563619" transform="matrix(-0.00127441 -1 0.999997 -0.00128541 99.4929 35.6775)" stroke="white" stroke-width="1.12724"/>
<ellipse rx="2.86904" ry="2.85142" transform="matrix(-0.0131808 -0.999913 0.999909 -0.0135303 99.4075 15.1507)" fill="white"/>
<ellipse rx="2.86904" ry="2.85142" transform="matrix(-0.0131808 -0.999913 0.999909 -0.0135303 99.4345 36.4083)" fill="white"/>
<path d="M83.5254 34.8372L83.3127 17.1434" stroke="white" stroke-width="1.12724"/>
<ellipse rx="2.86904" ry="2.85142" transform="matrix(-0.0131808 -0.999913 0.999909 -0.0135303 83.467 16.2616)" fill="white"/>
<ellipse rx="2.86904" ry="2.85142" transform="matrix(-0.0131808 -0.999913 0.999909 -0.0135303 83.4652 35.3768)" fill="white"/>
<line y1="-0.563619" x2="14.8248" y2="-0.563619" transform="matrix(-0.00127424 -0.999999 0.999999 -0.00129158 145.392 32.0794)" stroke="white" stroke-width="1.12724"/>
<ellipse rx="2.86927" ry="2.85121" transform="matrix(-0.00126674 -0.999999 0.999999 -0.00129923 145.361 17.5903)" fill="white"/>
<ellipse rx="2.86927" ry="2.8512" transform="matrix(-0.00126674 -0.999999 0.999999 -0.00129923 145.381 33.8967)" fill="white"/>
<line y1="-0.563619" x2="24.2935" y2="-0.563619" transform="matrix(-0.00127505 -1 -0.999997 0.00128476 120.119 37.9458)" stroke="#F5B22B" stroke-width="1.12724"/>
<ellipse rx="2.86902" ry="2.85144" transform="matrix(-0.0011766 -1 -0.999997 0.00139226 120.232 13.2787)" fill="#F5B22B"/>
<ellipse rx="2.86902" ry="2.85144" transform="matrix(-0.0011766 -1 -0.999997 0.00139226 119.92 38.1423)" fill="#F5B22B"/>
<line y1="-0.563619" x2="11.3816" y2="-0.563619" transform="matrix(-0.00127497 -1 0.999995 -0.0012698 105.665 31.5568)" stroke="white" stroke-width="1.12724"/>
<ellipse rx="1.91254" ry="1.9011" transform="matrix(-0.00110487 -1 0.999995 -0.00146528 105.692 31.4128)" fill="white"/>
<ellipse rx="1.91254" ry="1.9011" transform="matrix(-0.00110487 -1 0.999995 -0.00146528 105.678 20.168)" fill="white"/>
<line y1="-0.563619" x2="6.40813" y2="-0.563619" transform="matrix(-0.00127392 -0.999999 0.999999 -0.00129191 151.091 29.394)" stroke="white" stroke-width="1.12724"/>
<ellipse rx="1.91284" ry="1.90081" transform="matrix(-0.00126673 -0.999999 0.999999 -0.00129924 151.078 29.5853)" fill="white"/>
<ellipse rx="1.91284" ry="1.90079" transform="matrix(-0.00126673 -0.999999 0.999999 -0.00129924 151.068 21.8349)" fill="white"/>
<line y1="-0.563619" x2="11.3816" y2="-0.563619" transform="matrix(-0.00127563 -1 -0.999998 0.00128394 113.648 31.1638)" stroke="white" stroke-width="1.12724"/>
<ellipse rx="1.91268" ry="1.90096" transform="matrix(-0.00117772 -1 -0.999998 0.00139068 113.672 32.5035)" fill="white"/>
<ellipse rx="1.91268" ry="1.90096" transform="matrix(-0.00117772 -1 -0.999998 0.00139068 113.655 19.1138)" fill="white"/>
<ellipse rx="0.956429" ry="0.950391" transform="matrix(-0.013262 -0.999912 0.99991 -0.0134474 109.725 25.8014)" fill="white"/>
<ellipse rx="0.956429" ry="0.950391" transform="matrix(-0.013262 -0.999912 0.99991 -0.0134474 154.886 25.7432)" fill="white"/>
<path d="M11.8527 13.356V16.366H11.1807V14H2.52866V4.2H3.24266V13.356H9.55666V4.2H10.2707V13.356H11.8527ZM19.8133 10.514H13.5273C13.546 11.0833 13.6906 11.592 13.9613 12.04C14.232 12.4787 14.596 12.8193 15.0533 13.062C15.52 13.3047 16.0426 13.426 16.6213 13.426C17.0973 13.426 17.536 13.342 17.9373 13.174C18.348 12.9967 18.6886 12.74 18.9593 12.404L19.3653 12.866C19.048 13.2487 18.6466 13.5427 18.1613 13.748C17.6853 13.9533 17.1673 14.056 16.6073 14.056C15.8793 14.056 15.2306 13.8973 14.6613 13.58C14.092 13.2627 13.644 12.824 13.3173 12.264C13 11.704 12.8413 11.0647 12.8413 10.346C12.8413 9.63667 12.9906 9.002 13.2893 8.442C13.5973 7.87267 14.0173 7.42933 14.5493 7.112C15.0813 6.79467 15.6786 6.636 16.3413 6.636C17.004 6.636 17.5966 6.79467 18.1193 7.112C18.6513 7.42 19.0666 7.854 19.3653 8.414C19.6733 8.974 19.8273 9.60867 19.8273 10.318L19.8133 10.514ZM16.3413 7.252C15.828 7.252 15.366 7.36867 14.9553 7.602C14.5446 7.826 14.2133 8.148 13.9613 8.568C13.7186 8.97867 13.5786 9.44533 13.5413 9.968H19.1413C19.1133 9.44533 18.9733 8.97867 18.7213 8.568C18.4693 8.15733 18.138 7.83533 17.7273 7.602C17.3166 7.36867 16.8546 7.252 16.3413 7.252ZM22.1146 6.692H22.8146V10.024H27.7706V6.692H28.4706V14H27.7706V10.64H22.8146V14H22.1146V6.692ZM36.3795 7.322H33.5235V14H32.8235V7.322H29.9675V6.692H36.3795V7.322ZM41.5602 6.636C42.2416 6.636 42.8576 6.79467 43.4082 7.112C43.9589 7.42933 44.3882 7.868 44.6962 8.428C45.0136 8.988 45.1722 9.62733 45.1722 10.346C45.1722 11.0647 45.0136 11.7087 44.6962 12.278C44.3882 12.838 43.9589 13.2767 43.4082 13.594C42.8576 13.902 42.2416 14.056 41.5602 14.056C40.9162 14.056 40.3329 13.9067 39.8102 13.608C39.2876 13.3 38.8816 12.8753 38.5922 12.334V16.716H37.8922V6.692H38.5642V8.414C38.8536 7.854 39.2596 7.42 39.7822 7.112C40.3142 6.79467 40.9069 6.636 41.5602 6.636ZM41.5182 13.426C42.0782 13.426 42.5822 13.2953 43.0302 13.034C43.4782 12.7727 43.8282 12.4087 44.0802 11.942C44.3416 11.4753 44.4722 10.9433 44.4722 10.346C44.4722 9.74867 44.3416 9.21667 44.0802 8.75C43.8282 8.28333 43.4782 7.91933 43.0302 7.658C42.5822 7.39667 42.0782 7.266 41.5182 7.266C40.9582 7.266 40.4542 7.39667 40.0062 7.658C39.5676 7.91933 39.2176 8.28333 38.9562 8.75C38.7042 9.21667 38.5782 9.74867 38.5782 10.346C38.5782 10.9433 38.7042 11.4753 38.9562 11.942C39.2176 12.4087 39.5676 12.7727 40.0062 13.034C40.4542 13.2953 40.9582 13.426 41.5182 13.426ZM6.65866 31.168C5.64133 31.168 4.722 30.9487 3.90066 30.51C3.08866 30.0713 2.44933 29.4693 1.98266 28.704C1.52533 27.9293 1.29666 27.0613 1.29666 26.1C1.29666 25.1387 1.52533 24.2753 1.98266 23.51C2.44933 22.7353 3.08866 22.1287 3.90066 21.69C4.722 21.2513 5.64133 21.032 6.65866 21.032C7.676 21.032 8.59066 21.2513 9.40266 21.69C10.2147 22.1287 10.854 22.7353 11.3207 23.51C11.7873 24.2753 12.0207 25.1387 12.0207 26.1C12.0207 27.0613 11.7873 27.9293 11.3207 28.704C10.854 29.4693 10.2147 30.0713 9.40266 30.51C8.59066 30.9487 7.676 31.168 6.65866 31.168ZM6.65866 29.236C7.23733 29.236 7.76 29.1053 8.22666 28.844C8.69333 28.5733 9.05733 28.2 9.31866 27.724C9.58933 27.248 9.72466 26.7067 9.72466 26.1C9.72466 25.4933 9.58933 24.952 9.31866 24.476C9.05733 24 8.69333 23.6313 8.22666 23.37C7.76 23.0993 7.23733 22.964 6.65866 22.964C6.08 22.964 5.55733 23.0993 5.09066 23.37C4.624 23.6313 4.25533 24 3.98466 24.476C3.72333 24.952 3.59266 25.4933 3.59266 26.1C3.59266 26.7067 3.72333 27.248 3.98466 27.724C4.25533 28.2 4.624 28.5733 5.09066 28.844C5.55733 29.1053 6.08 29.236 6.65866 29.236ZM20.5777 23.468V31H18.3937V25.26H16.0137L15.9437 26.59C15.9064 27.5793 15.8131 28.4007 15.6637 29.054C15.5144 29.7073 15.2717 30.2207 14.9357 30.594C14.5997 30.9673 14.1331 31.154 13.5357 31.154C13.2184 31.154 12.8404 31.098 12.4017 30.986L12.5137 29.194C12.6631 29.2127 12.7704 29.222 12.8357 29.222C13.1624 29.222 13.4051 29.1053 13.5637 28.872C13.7317 28.6293 13.8437 28.326 13.8997 27.962C13.9557 27.5887 13.9977 27.0987 14.0257 26.492L14.1377 23.468H20.5777ZM26.7519 25.876C27.7319 25.8853 28.4833 26.1093 29.0059 26.548C29.5286 26.9773 29.7899 27.5887 29.7899 28.382C29.7899 29.2127 29.4959 29.8613 28.9079 30.328C28.3293 30.7853 27.5126 31.014 26.4579 31.014L22.6779 31V23.468H24.8479V25.876H26.7519ZM26.2619 29.46C26.6819 29.4693 27.0039 29.3807 27.2279 29.194C27.4519 29.0073 27.5639 28.7273 27.5639 28.354C27.5639 27.99 27.4519 27.724 27.2279 27.556C27.0133 27.388 26.6913 27.2993 26.2619 27.29L24.8479 27.276V29.46H26.2619ZM37.1885 25.26H33.3245V31H31.1545V23.468H37.1885V25.26ZM38.3459 23.468H40.5159V27.948L44.1839 23.468H46.1859V31H44.0159V26.52L40.3619 31H38.3459V23.468ZM10.7187 38.2V48H8.47866V40.048H5.11866L5.04866 42.092C5.002 43.4827 4.89 44.612 4.71266 45.48C4.53533 46.3387 4.23666 47.0013 3.81666 47.468C3.406 47.9253 2.82733 48.154 2.08066 48.154C1.77266 48.154 1.39933 48.1027 0.960664 48L1.10066 46.082C1.222 46.1193 1.35733 46.138 1.50666 46.138C2.048 46.138 2.426 45.8207 2.64066 45.186C2.85533 44.542 2.99066 43.5387 3.04666 42.176L3.18666 38.2H10.7187ZM20.5443 40.468L17.1423 48.462C16.7969 49.33 16.3676 49.9413 15.8543 50.296C15.3503 50.6507 14.7389 50.828 14.0203 50.828C13.6283 50.828 13.2409 50.7673 12.8583 50.646C12.4756 50.5247 12.1629 50.3567 11.9203 50.142L12.7183 48.588C12.8863 48.7373 13.0776 48.854 13.2923 48.938C13.5163 49.022 13.7356 49.064 13.9503 49.064C14.2489 49.064 14.4916 48.9893 14.6783 48.84C14.8649 48.7 15.0329 48.462 15.1823 48.126L15.2103 48.056L11.9483 40.468H14.2023L16.3163 45.578L18.4443 40.468H20.5443ZM24.9159 45.144H23.7819V48H21.5979V40.468H23.7819V43.394H24.9579L27.0019 40.468H29.3259L26.6939 44.08L29.5079 48H26.9319L24.9159 45.144ZM30.5803 40.468H32.7503V44.948L36.4183 40.468H38.4203V48H36.2503V43.52L32.5963 48H30.5803V40.468ZM40.5197 40.468H42.6897V43.408H45.9657V40.468H48.1497V48H45.9657V45.186H42.6897V48H40.5197V40.468ZM53.7684 48.112C52.9751 48.112 52.2611 47.9487 51.6264 47.622C51.0011 47.286 50.5111 46.824 50.1564 46.236C49.8018 45.648 49.6244 44.9807 49.6244 44.234C49.6244 43.4873 49.8018 42.82 50.1564 42.232C50.5111 41.644 51.0011 41.1867 51.6264 40.86C52.2611 40.524 52.9751 40.356 53.7684 40.356C54.5618 40.356 55.2711 40.524 55.8964 40.86C56.5218 41.1867 57.0118 41.644 57.3664 42.232C57.7211 42.82 57.8984 43.4873 57.8984 44.234C57.8984 44.9807 57.7211 45.648 57.3664 46.236C57.0118 46.824 56.5218 47.286 55.8964 47.622C55.2711 47.9487 54.5618 48.112 53.7684 48.112ZM53.7684 46.32C54.3284 46.32 54.7858 46.1333 55.1404 45.76C55.5044 45.3773 55.6864 44.8687 55.6864 44.234C55.6864 43.5993 55.5044 43.0953 55.1404 42.722C54.7858 42.3393 54.3284 42.148 53.7684 42.148C53.2084 42.148 52.7464 42.3393 52.3824 42.722C52.0184 43.0953 51.8364 43.5993 51.8364 44.234C51.8364 44.8687 52.0184 45.3773 52.3824 45.76C52.7464 46.1333 53.2084 46.32 53.7684 46.32ZM59.4006 40.468H61.5706V44.948L65.2386 40.468H67.2406V48H65.0706V43.52L61.4166 48H59.4006V40.468ZM63.1806 39.656C61.5379 39.656 60.7119 38.9327 60.7026 37.486H62.1306C62.1399 37.8127 62.2286 38.0693 62.3966 38.256C62.5739 38.4333 62.8306 38.522 63.1666 38.522C63.5026 38.522 63.7593 38.4333 63.9366 38.256C64.1233 38.0693 64.2166 37.8127 64.2166 37.486H65.6726C65.6633 38.9327 64.8326 39.656 63.1806 39.656Z" fill="white"/>
</svg>
