<svg width="165" height="51" viewBox="0 0 165 51" fill="none" xmlns="http://www.w3.org/2000/svg">
<line x1="99.5324" y1="38.1957" x2="99.4994" y2="12.4675" stroke="#F5B22B" stroke-width="1.12724"/>
<circle cx="100.051" cy="41.0299" r="2.86931" transform="rotate(-90.7652 100.051 41.0299)" fill="black"/>
<circle cx="100.001" cy="11.1798" r="3.82575" transform="rotate(-90.7652 100.001 11.1798)" fill="black"/>
<line y1="-0.563619" x2="24.2935" y2="-0.563619" transform="matrix(-0.00128288 -0.999999 -0.999999 0.00128288 137.11 37.9561)" stroke="black" stroke-width="1.12724"/>
<circle r="3.82575" transform="matrix(-0.00128288 -0.999999 -0.999999 0.00128288 137.101 41.1124)" fill="black"/>
<circle r="3.82575" transform="matrix(-0.00128288 -0.999999 -0.999999 0.00128288 137.061 10.0102)" fill="black"/>
<line x1="146.107" y1="35.5535" x2="146.082" y2="15.8509" stroke="#F5B22B" stroke-width="1.12724"/>
<circle r="3.82575" transform="matrix(-0.00128288 -0.999999 -0.999999 0.00128288 146.661 38.1352)" fill="#F5B22B"/>
<circle r="3.82575" transform="matrix(-0.00128288 -0.999999 -0.999999 0.00128288 146.629 12.9573)" fill="#F5B22B"/>
<line x1="107.563" y1="35.5073" x2="107.537" y2="15.4221" stroke="black" stroke-width="1.12724"/>
<circle cx="108.041" cy="14.9798" r="2.86931" transform="rotate(-90.7652 108.041 14.9798)" fill="black"/>
<circle cx="108.068" cy="36.2374" r="2.86931" transform="rotate(-90.7652 108.068 36.2374)" fill="black"/>
<path d="M92.0574 34.6664L91.8434 16.9725" stroke="black" stroke-width="1.12724"/>
<circle cx="91.9986" cy="16.0907" r="2.86931" transform="rotate(-90.7652 91.9986 16.0907)" fill="black"/>
<circle cx="91.9968" cy="35.2059" r="2.86931" transform="rotate(-90.7652 91.9968 35.2059)" fill="black"/>
<line x1="153.754" y1="31.9093" x2="153.735" y2="17.0845" stroke="black" stroke-width="1.12724"/>
<circle cx="154.286" cy="17.4194" r="2.86931" transform="rotate(-90.0735 154.286 17.4194)" fill="black"/>
<circle cx="154.307" cy="33.7258" r="2.86931" transform="rotate(-90.0735 154.307 33.7258)" fill="black"/>
<line y1="-0.563619" x2="24.2935" y2="-0.563619" transform="matrix(-0.00128288 -0.999999 -0.999999 0.00128288 128.884 37.7749)" stroke="#F5B22B" stroke-width="1.12724"/>
<circle r="2.86931" transform="matrix(-0.00128288 -0.999999 -0.999999 0.00128288 128.998 13.1079)" fill="#F5B22B"/>
<circle r="2.86931" transform="matrix(-0.00128288 -0.999999 -0.999999 0.00128288 128.683 37.9715)" fill="#F5B22B"/>
<line x1="113.775" y1="31.3866" x2="113.76" y2="20.0051" stroke="black" stroke-width="1.12724"/>
<circle cx="114.365" cy="31.242" r="1.91288" transform="rotate(-90.0735 114.365 31.242)" fill="black"/>
<circle cx="114.351" cy="19.9971" r="1.91288" transform="rotate(-90.0735 114.351 19.9971)" fill="black"/>
<line x1="159.49" y1="29.2238" x2="159.481" y2="22.8157" stroke="black" stroke-width="1.12724"/>
<circle cx="160.04" cy="29.4144" r="1.91288" transform="rotate(-90.0735 160.04 29.4144)" fill="black"/>
<circle cx="160.031" cy="21.664" r="1.91288" transform="rotate(-90.0735 160.031 21.664)" fill="black"/>
<line y1="-0.563619" x2="11.3816" y2="-0.563619" transform="matrix(-0.00128288 -0.999999 -0.999999 0.00128288 122.372 30.9929)" stroke="black" stroke-width="1.12724"/>
<circle r="1.91288" transform="matrix(-0.00128288 -0.999999 -0.999999 0.00128288 122.396 32.3326)" fill="black"/>
<circle r="1.91288" transform="matrix(-0.00128288 -0.999999 -0.999999 0.00128288 122.378 18.9429)" fill="black"/>
<circle cx="118.424" cy="25.6305" r="0.956438" transform="rotate(-90.7652 118.424 25.6305)" fill="black"/>
<circle cx="163.873" cy="25.5723" r="0.956438" transform="rotate(-90.7652 163.873 25.5723)" fill="black"/>
<path d="M10.2669 12.2831C10.2308 12.6167 10.1722 13.1398 10.091 13.8522C10.0189 14.5736 9.96027 15.1012 9.91518 15.4348H9.18473C9.17571 15.1102 9.15768 14.6863 9.13062 14.1633C9.10357 13.6403 9.08103 13.2525 9.06299 13H0.568128V12.4319L1.89376 12.2696V3.68L0.716923 3.53121V2.94955H4.34212V3.53121L2.97591 3.68V12.2966H7.57504V3.68L6.51994 3.53121V2.94955H9.80697V3.53121L8.67071 3.68V12.2831H10.2669ZM14.5428 13.1488C13.4968 13.1488 12.6897 12.7926 12.1215 12.0802C11.5624 11.3587 11.2829 10.4028 11.2829 9.21248C11.2829 8.44596 11.4317 7.76511 11.7293 7.16993C12.0268 6.57475 12.4372 6.11483 12.9602 5.79019C13.4923 5.45653 14.0874 5.2897 14.7457 5.2897C15.5483 5.2897 16.1706 5.51965 16.6124 5.97956C17.0633 6.43948 17.3068 7.10229 17.3429 7.96801C17.3429 8.52712 17.3158 8.92391 17.2617 9.15837H12.4462C12.4462 10.1053 12.6581 10.8808 13.0819 11.485C13.5148 12.0802 14.119 12.3778 14.8945 12.3778C15.2733 12.3778 15.6611 12.3101 16.0578 12.1749C16.4546 12.0396 16.7612 11.8773 16.9777 11.6879L17.1941 12.1884C16.9326 12.4589 16.5493 12.6889 16.0443 12.8783C15.5483 13.0586 15.0478 13.1488 14.5428 13.1488ZM16.1255 8.52261C16.1525 8.33324 16.1661 8.13484 16.1661 7.92743C16.157 7.33225 16.0128 6.85881 15.7332 6.50711C15.4627 6.15541 15.0433 5.97956 14.4752 5.97956C13.2398 5.97956 12.5679 6.82725 12.4597 8.52261H16.1255ZM21.9426 5.4926V6.07425L20.7387 6.27716V8.75257H24.8102V6.27716L23.5928 6.07425V5.4926H26.8934V6.07425L25.8789 6.27716V12.3101L26.961 12.4183V13H23.5523V12.4183L24.8102 12.3101V9.45597H20.7387V12.3101L21.9967 12.4183V13H18.5879V12.4183L19.67 12.3101V6.27716L18.615 6.07425V5.4926H21.9426ZM35.3056 5.4926L35.3732 8.2115H34.6428L34.3181 6.23658L32.2756 6.18247V12.2966L34.1558 12.4183V13H29.3267V12.4183L31.207 12.2966V6.18247L29.1644 6.23658L28.8262 8.2115H28.1093L28.1634 5.4926H35.3056ZM43.7096 8.969C43.7096 9.74454 43.5518 10.4524 43.2361 11.0927C42.9205 11.724 42.4696 12.2245 41.8835 12.5942C41.3063 12.9639 40.6435 13.1488 39.895 13.1488C39.6425 13.1488 39.3765 13.1263 39.0969 13.0812C38.8174 13.0451 38.5874 12.9955 38.4071 12.9324L38.4341 14.0821V15.543L39.9356 15.6783V16.2735H36.3104V15.6783L37.352 15.543V6.38537L36.2969 6.15541V5.54671L38.0283 5.33028H38.0554L38.2988 5.54671V6.37184C38.5874 6.07425 38.9391 5.82175 39.3539 5.61434C39.7688 5.39791 40.2332 5.2897 40.7472 5.2897C41.2702 5.2897 41.7572 5.42046 42.2081 5.68197C42.659 5.94349 43.0197 6.3493 43.2903 6.89939C43.5698 7.44948 43.7096 8.13935 43.7096 8.969ZM40.3008 6.11483C39.913 6.11483 39.5523 6.19599 39.2187 6.35832C38.885 6.52064 38.6235 6.701 38.4341 6.89939V12.0531C38.5063 12.1704 38.6866 12.2786 38.9752 12.3778C39.2728 12.4679 39.5974 12.513 39.9491 12.513C40.7247 12.513 41.3469 12.229 41.8158 11.6608C42.2938 11.0837 42.5327 10.236 42.5327 9.11779C42.5327 8.11681 42.3208 7.36832 41.897 6.87234C41.4822 6.36734 40.9501 6.11483 40.3008 6.11483ZM4.80203 30.1488C3.33211 30.1488 2.23193 29.6889 1.50148 28.7691C0.77103 27.8492 0.405805 26.5957 0.405805 25.0086C0.405805 23.9715 0.595181 23.0607 0.973933 22.2762C1.3617 21.4916 1.90278 20.8874 2.59715 20.4636C3.29153 20.0397 4.08962 19.8278 4.99141 19.8278C6.47936 19.8278 7.59307 20.2697 8.33254 21.1534C9.08103 22.0282 9.45527 23.2546 9.45527 24.8327C9.45527 25.8788 9.25687 26.8077 8.86009 27.6193C8.47232 28.4219 7.92673 29.0441 7.22334 29.486C6.51994 29.9279 5.71284 30.1488 4.80203 30.1488ZM4.9373 20.6529C4.19783 20.6529 3.62069 21.0182 3.20586 21.7486C2.79104 22.4791 2.58363 23.5612 2.58363 24.9951C2.58363 26.4109 2.78202 27.4885 3.17881 28.228C3.58462 28.9584 4.16176 29.3237 4.91025 29.3237C5.6407 29.3237 6.21333 28.9404 6.62816 28.1739C7.04298 27.3983 7.25039 26.2846 7.25039 24.8327C7.25039 23.426 7.052 22.3799 6.65521 21.6945C6.25842 21.0001 5.68579 20.6529 4.9373 20.6529ZM12.9119 24.1023C12.9119 25.2927 12.8398 26.3297 12.6955 27.2135C12.5512 28.0972 12.3753 28.742 12.1679 29.1478C12.0417 29.4454 11.8658 29.6799 11.6404 29.8512C11.4149 30.0135 11.1038 30.0947 10.707 30.0947C10.4906 30.0947 10.2561 30.0631 10.0036 30L9.89542 28.7691C10.1028 28.8141 10.3959 28.8367 10.7747 28.8367C11.0091 28.8367 11.212 28.6112 11.3834 28.1603C11.5637 27.7095 11.7035 27.0782 11.8027 26.2666C11.9109 25.446 11.965 24.5081 11.965 23.453L10.7341 23.2772V22.4791H18.0386V23.2907L16.8617 23.4801V29.0666L17.9845 29.1884V30H13.9129V29.1884L14.9545 29.0666V23.426H12.9119V24.1023ZM21.8236 25.4144C22.1392 25.4144 22.3917 25.4099 22.5811 25.4009L23.3927 25.3873C24.4027 25.3873 25.1557 25.5812 25.6517 25.969C26.1476 26.3478 26.3956 26.9024 26.3956 27.6328C26.3956 28.4715 26.1161 29.0982 25.557 29.513C25.0069 29.9188 24.2088 30.1217 23.1627 30.1217C23.0455 30.1217 22.6712 30.1037 22.04 30.0676C21.4809 30.0225 21.057 30 20.7685 30H18.8882V29.2154L19.9433 29.0666V23.453L18.9288 23.2907V22.4791H23.0139V23.2907L21.8236 23.453V25.4144ZM21.8236 29.2019C22.0761 29.256 22.3782 29.2831 22.7299 29.2831C23.8571 29.2831 24.4207 28.7826 24.4207 27.7816C24.4207 26.7806 23.8932 26.2801 22.8381 26.2801C22.3601 26.2801 22.022 26.2846 21.8236 26.2936V29.2019ZM33.3406 22.4791L33.4083 25.455H32.2991L31.9203 23.426L30.0671 23.3177V29.0666L31.8391 29.1884V30H27.1183V29.1884L28.1463 29.0666V23.453L27.1453 23.2636V22.4791H33.3406ZM38.1096 22.4791V23.2772L37.068 23.453V27.5381L37.8255 26.5371L40.4497 23.7371V23.453L39.5434 23.2772V22.4791H43.2904V23.2772L42.3705 23.453V29.0666L43.3309 29.1884V30H39.4352V29.1884L40.4497 29.0666V24.9139L39.6652 26.0366L37.068 28.7826V29.0937L37.9608 29.1884V30H34.2138V29.1884L35.1607 29.0666V23.453L34.2409 23.2772V22.4791H38.1096ZM4.07158 39.0327C4.07158 40.6018 3.98591 42.0131 3.81457 43.2666C3.65225 44.5111 3.39975 45.4489 3.05707 46.0802C2.69635 46.7475 2.17782 47.0812 1.50148 47.0812C1.04157 47.0812 0.694378 47.0541 0.459913 47L0.338171 45.7826C0.698887 45.8187 1.04157 45.8367 1.36621 45.8367C1.54657 45.8367 1.69987 45.7961 1.82612 45.7149C1.96139 45.6338 2.07863 45.4895 2.17782 45.2821C2.4664 44.7771 2.68733 44.0061 2.84064 42.969C3.00296 41.9319 3.08412 40.5342 3.08412 38.7757V37.9641L1.4609 37.7882V36.9496H9.83402V37.7882L8.58955 37.9641V46.0531L9.90165 46.1884V47H5.23489V46.1884L6.62816 46.0396L6.64168 37.9641H4.07158V39.0327ZM12.0106 50.3682C11.8483 50.3682 11.6724 50.3547 11.483 50.3276C11.3027 50.3006 11.1719 50.269 11.0907 50.2329V48.7855C11.1539 48.8216 11.2801 48.8577 11.4695 48.8938C11.6589 48.9298 11.8302 48.9479 11.9835 48.9479C12.4344 48.9479 12.8041 48.7991 13.0927 48.5015C13.3903 48.2039 13.6654 47.7034 13.9179 47H13.1874L10.6444 40.4395L10.0357 40.2636V39.4791H13.7555V40.2636L12.7681 40.426L13.972 44.1729L14.4589 45.7691L14.8783 44.1729L15.9875 40.426L15.1353 40.2636V39.4791H18.0706V40.2636L17.4078 40.426C16.9118 41.941 16.4203 43.4019 15.9334 44.8087C15.4464 46.2154 15.1623 47.0045 15.0812 47.1758C14.7926 47.9334 14.5176 48.5376 14.256 48.9884C13.9945 49.4393 13.6834 49.782 13.3227 50.0165C12.962 50.251 12.5246 50.3682 12.0106 50.3682ZM23.8363 42.8067C24.197 42.96 24.5127 43.217 24.7832 43.5777C25.0537 43.9294 25.3468 44.3848 25.6624 44.9439C25.8518 45.2866 26.0096 45.5481 26.1359 45.7285C26.2621 45.8998 26.3839 46.008 26.5011 46.0531L27.0828 46.1749V47H25.1214C24.8689 47 24.6434 46.8602 24.445 46.5807C24.2466 46.2921 24.0077 45.8592 23.7281 45.2821C23.4485 44.6869 23.2006 44.236 22.9841 43.9294C22.7677 43.6228 22.5197 43.4695 22.2401 43.4695H21.388V46.0666L22.4972 46.1884V47H18.5338V46.1884L19.4807 46.0666V40.453L18.5608 40.2772V39.4791H22.3078V40.2772L21.388 40.453V42.6714H22.7136L24.2151 40.453L23.2141 40.2772V39.4791H26.704V40.2772L25.6624 40.453L23.8363 42.8067ZM31.5311 39.4791V40.2772L30.4895 40.453V44.5381L31.247 43.5371L33.8712 40.7371V40.453L32.9649 40.2772V39.4791H36.7119V40.2772L35.792 40.453V46.0666L36.7524 46.1884V47H32.8567V46.1884L33.8712 46.0666V41.9139L33.0867 43.0366L30.4895 45.7826V46.0937L31.3823 46.1884V47H27.6354V46.1884L28.5822 46.0666V40.453L27.6624 40.2772V39.4791H31.5311ZM41.7413 39.4791V40.2772L40.7539 40.453V42.6579H43.9462V40.453L42.9587 40.2772V39.4791H46.8004V40.2772L45.867 40.453V46.0666L46.8139 46.1884V47H42.9317V46.1884L43.9462 46.0666V43.5507H40.7539V46.0666L41.7548 46.1884V47H37.8862V46.1884L38.8466 46.0666V40.453L37.8862 40.2772V39.4791H41.7413ZM48.0187 43.2531C48.0187 42.4054 48.1856 41.6839 48.5192 41.0888C48.8619 40.4936 49.3173 40.0472 49.8854 39.7496C50.4536 39.443 51.0713 39.2897 51.7386 39.2897C52.8749 39.2897 53.7496 39.6414 54.3628 40.3448C54.9851 41.0392 55.2962 41.986 55.2962 43.1854C55.2962 44.0421 55.1248 44.7726 54.7822 45.3768C54.4485 45.972 53.9976 46.4183 53.4295 46.7159C52.8704 47.0045 52.2526 47.1488 51.5763 47.1488C50.4491 47.1488 49.5743 46.8016 48.9521 46.1072C48.3298 45.4038 48.0187 44.4524 48.0187 43.2531ZM51.6845 46.2696C52.7035 46.2696 53.213 45.2866 53.213 43.3207C53.213 42.2927 53.0913 41.5126 52.8478 40.9806C52.6043 40.4395 52.2075 40.1689 51.6574 40.1689C50.6114 40.1689 50.0883 41.1519 50.0883 43.1178C50.0883 44.1458 50.2146 44.9304 50.4671 45.4715C50.7286 46.0035 51.1344 46.2696 51.6845 46.2696ZM60.3945 39.4791V40.2772L59.353 40.453V44.5381L60.1105 43.5371L62.7347 40.7371V40.453L61.8284 40.2772V39.4791H65.5753V40.2772L64.6555 40.453V46.0666L65.6159 46.1884V47H61.7202V46.1884L62.7347 46.0666V41.9139L61.9501 43.0366L59.353 45.7826V46.0937L60.2457 46.1884V47H56.4988V46.1884L57.4457 46.0666V40.453L56.5258 40.2772V39.4791H60.3945ZM59.5964 35.5698C59.7407 35.5698 59.8129 35.7637 59.8129 36.1515C59.8129 36.5302 59.9166 36.8504 60.124 37.1119C60.3314 37.3734 60.6425 37.5042 61.0573 37.5042C61.4722 37.5042 61.7788 37.3734 61.9772 37.1119C62.1756 36.8504 62.2748 36.5302 62.2748 36.1515C62.2748 35.7637 62.3469 35.5698 62.4912 35.5698H63.7762C63.7853 35.6239 63.7898 35.7321 63.7898 35.8945C63.7898 36.6159 63.5463 37.1975 63.0593 37.6394C62.5814 38.0723 61.9095 38.2887 61.0438 38.2887C60.2052 38.2887 59.5378 38.0678 59.0418 37.6259C58.5459 37.184 58.2979 36.6069 58.2979 35.8945L58.3114 35.5698H59.5964Z" fill="black"/>
</svg>
